#!OML:ASF E:\motion texture\Top Level 1\Subject 1\Session 1\male.ASF
:FULLY-SPECIFIED
:DEGREES
275
root -9.02416 17.9478 5.67159 524.858 -85.1334 -521.606
lowerback -0.488236 -0.674308 0.286219
upperback -2.74011 -0.915899 0.654801
thorax -2.52918 -0.469713 0.52766
lowerneck -6.91276 -11.0534 -13.2716
upperneck 17.0102 -15.7136 10.277
head 8.27417 -7.68168 3.86592
rclavicle -2.49855e-014 3.35449e-015
rhumerus -35.5261 25.5678 -99.3167
rradius 89.974
rwrist -14.9411
rhand -13.5761 -38.6553
rfingers 7.12502
rthumb 12.5378 -68.2591
lclavicle -2.49855e-014 3.35449e-015
lhumerus -28.5612 0.158475 91.714
lradius 82.9993
lwrist 8.854
lhand -15.135 40.7407
lfingers 7.12502
lthumb 11.0346 70.4307
rfemur -26.0298 -6.88799 21.831
rtibia 67.9905
rfoot 0.142078 -18.7008
rtoes 8.56327
lfemur -9.67269 -3.70792 -18.3944
ltibia 20.7629
lfoot -10.3179 6.00282
ltoes -3.93301
276
root -9.17331 17.9643 5.66822 526.933 -85.084 -523.665
lowerback -0.412533 -0.81244 0.14535
upperback -2.81913 -1.10095 0.726124
thorax -2.648 -0.558506 0.685094
lowerneck -6.92815 -11.2028 -13.3734
upperneck 16.702 -15.9986 10.8479
head 8.26902 -7.78108 4.02897
rclavicle 9.59835e-015 1.97542e-015
rhumerus -35.8959 26.4047 -99.7547
rradius 91.6031
rwrist -14.3883
rhand -13.7319 -38.6184
rfingers 7.12502
rthumb 12.3877 -68.2314
lclavicle 9.59835e-015 1.97542e-015
lhumerus -28.2564 0.145519 91.497
lradius 83.2193
lwrist 7.80641
lhand -15.3473 40.3988
lfingers 7.12502
lthumb 10.8298 70.0995
rfemur -27.0167 -6.87817 21.617
rtibia 67.2472
rfoot -0.668252 -18.4002
rtoes 7.90295
lfemur -8.70347 -3.7837 -18.6985
ltibia 20.0142
lfoot -10.4212 6.28102
ltoes -4.05888
277
root -9.32048 17.9781 5.66415 528.79 -85.0344 -525.486
lowerback -0.335876 -0.959819 0.0101015
upperback -2.89285 -1.29825 0.811315
thorax -2.76029 -0.653056 0.854479
lowerneck -6.97278 -11.3461 -13.4727
upperneck 16.3682 -16.2688 11.4305
head 8.26202 -7.87222 4.19551
rclavicle 2.06239e-015 1.3418e-015
rhumerus -36.2256 27.1667 -100.131
rradius 93.281
rwrist -13.8229
rhand -14.0111 -38.5787
rfingers 7.12502
rthumb 12.1184 -68.2077
lclavicle 2.06239e-015 1.3418e-015
lhumerus -27.951 0.133559 91.2719
lradius 83.4944
lwrist 6.62945
lhand -15.6642 40.0956
lfingers 7.12502
lthumb 10.5241 69.8121
rfemur -27.9895 -6.85095 21.4191
rtibia 66.3665
rfoot -1.52794 -18.2169
rtoes 7.27246
lfemur -7.79187 -3.84301 -18.9802
ltibia 19.3088
lfoot -10.5284 6.54554
ltoes -4.21958
278
root -9.46588 17.9894 5.65905 530.434 -84.9894 -527.08
lowerback -0.243045 -1.11524 -0.121224
upperback -2.968 -1.50621 0.907732
thorax -2.88138 -0.752537 1.03452
lowerneck -7.02271 -11.4783 -13.5594
upperneck 16.0139 -16.5177 12.0028
head 8.24682 -7.95442 4.35902
rclavicle 8.60675e-015 1.98785e-016
rhumerus -36.5117 27.8302 -100.439
rradius 94.9898
rwrist -13.263
rhand -14.3824 -38.4776
rfingers 7.12502
rthumb 11.7604 -68.1275
lclavicle 8.60675e-015 1.98785e-016
lhumerus -27.6649 0.112122 91.0369
lradius 83.8258
lwrist 5.32928
lhand -16.0656 39.8008
lfingers 7.12502
lthumb 10.1368 69.5366
rfemur -28.9319 -6.81971 21.2349
rtibia 65.3468
rfoot -2.41187 -18.1449
rtoes 6.67916
lfemur -6.93138 -3.8865 -19.2377
ltibia 18.6504
lfoot -10.6449 6.79103
ltoes -4.43716
279
root -9.61008 17.9979 5.65311 531.965 -84.9498 -528.547
lowerback -0.149291 -1.27856 -0.255957
upperback -3.0405 -1.72479 1.0151
thorax -2.99806 -0.856782 1.22878
lowerneck -7.08186 -11.604 -13.6302
upperneck 15.6389 -16.7481 12.5504
head 8.22247 -8.02946 4.51376
rclavicle 5.44794e-015 8.94531e-016
rhumerus -36.7519 28.3982 -100.67
rradius 96.718
rwrist -12.6924
rhand -14.8142 -38.2747
rfingers 7.12502
rthumb 11.3439 -67.9479
lclavicle 5.44794e-015 8.94531e-016
lhumerus -27.4227 0.0736107 90.7945
lradius 84.2338
lwrist 3.90076
lhand -16.5528 39.5211
lfingers 7.12502
lthumb 9.66679 69.2793
rfemur -29.8341 -6.79028 21.0526
rtibia 64.1787
rfoot -3.24648 -18.1914
rtoes 6.18842
lfemur -6.11731 -3.91465 -19.4805
ltibia 18.0399
lfoot -10.7754 7.0149
ltoes -4.71896
280
root -9.75355 18.004 5.6464 533.402 -84.9217 -529.918
lowerback -0.048876 -1.44682 -0.387891
upperback -3.1048 -1.94996 1.12506
thorax -3.10815 -0.964007 1.42518
lowerneck -7.14443 -11.7216 -13.6866
upperneck 15.2506 -16.9604 13.0784
head 8.19076 -8.09763 4.66192
rclavicle 2.15184e-014 -1.19271e-014
rhumerus -36.9255 28.8533 -100.813
rradius 98.4465
rwrist -12.0446
rhand -15.2533 -37.9795
rfingers 7.12502
rthumb 10.9204 -67.6755
lclavicle 2.15184e-014 -1.19271e-014
lhumerus -27.2095 -0.000757355 90.5436
lradius 84.7086
lwrist 2.3347
lhand -17.1144 39.2867
lfingers 7.12502
lthumb 9.125 69.0693
rfemur -30.6735 -6.77656 20.8672
rtibia 62.8546
rfoot -4.00607 -18.3365
rtoes 5.74921
lfemur -5.33829 -3.933 -19.7122
ltibia 17.4753
lfoot -10.9198 7.21238
ltoes -5.05661
281
root -9.89615 18.0076 5.63886 534.802 -84.908 -531.241
lowerback 0.0449441 -1.62025 -0.520995
upperback -3.15986 -2.18219 1.23597
thorax -3.20289 -1.07448 1.62383
lowerneck -7.20873 -11.8323 -13.7264
upperneck 14.8509 -17.1556 13.5809
head 8.15115 -8.15981 4.80118
rclavicle -2.10588e-014 1.78906e-015
rhumerus -37.0256 29.2055 -100.864
rradius 100.156
rwrist -11.2593
rhand -15.7079 -37.5708
rfingers 7.12502
rthumb 10.4819 -67.2895
lclavicle -2.10588e-014 1.78906e-015
lhumerus -27.0314 -0.111575 90.284
lradius 85.2606
lwrist 0.611891
lhand -17.731 39.0711
lfingers 7.12502
lthumb 8.5299 68.8788
rfemur -31.4533 -6.78054 20.6759
rtibia 61.3761
rfoot -4.68911 -18.5751
rtoes 5.35566
lfemur -4.60454 -3.93762 -19.9337
ltibia 16.9616
lfoot -11.0814 7.37631
ltoes -5.44461
282
root -10.0377 18.0089 5.63048 536.166 -84.9122 -532.511
lowerback 0.130643 -1.79982 -0.652862
upperback -3.2089 -2.42277 1.34779
thorax -3.28466 -1.18899 1.82328
lowerneck -7.27209 -11.94 -13.7497
upperneck 14.4403 -17.3386 14.0541
head 8.10338 -8.21864 4.92978
rclavicle -1.11692e-014 2.98177e-015
rhumerus -37.0512 29.4672 -100.825
rradius 101.828
rwrist -10.2873
rhand -16.1667 -37.0311
rfingers 7.12502
rthumb 10.0394 -66.7716
lclavicle -1.11692e-014 2.98177e-015
lhumerus -26.8829 -0.251966 90.0197
lradius 85.8879
lwrist -1.28169
lhand -18.3877 38.8674
lfingers 7.12502
lthumb 7.89618 68.6999
rfemur -32.1788 -6.80108 20.4809
rtibia 59.747
rfoot -5.27331 -18.8939
rtoes 5.02625
lfemur -3.92928 -3.92418 -20.1422
ltibia 16.5056
lfoot -11.2543 7.50839
ltoes -5.79044
283
root -10.179 18.0081 5.62155 537.587 -84.921 -533.822
lowerback 0.204707 -1.98087 -0.788763
upperback -3.25288 -2.66558 1.46113
thorax -3.35234 -1.3044 2.02666
lowerneck -7.35469 -12.0525 -13.751
upperneck 14.0261 -17.5182 14.4912
head 8.05333 -8.27724 5.04208
rclavicle 1.69464e-014 -5.96354e-015
rhumerus -37.0151 29.6495 -100.701
rradius 103.46
rwrist -9.09562
rhand -16.6641 -36.3914
rfingers 7.12502
rthumb 9.5594 -66.1545
lclavicle 1.69464e-014 -5.96354e-015
lhumerus -26.7724 -0.413001 89.7624
lradius 86.5994
lwrist -3.34835
lhand -19.0891 38.6587
lfingers 7.12502
lthumb 7.2191 68.5156
rfemur -32.8444 -6.82285 20.2725
rtibia 57.9674
rfoot -5.7833 -19.2628
rtoes 4.82414
lfemur -3.30178 -3.87152 -20.3482
ltibia 16.1002
lfoot -11.4405 7.61889
ltoes -6.12317
